<svg xmlns="http://www.w3.org/2000/svg" width="256" height="256" viewBox="0 0 100 100"><rect width="100" height="100" rx="20" fill="#000000"></rect><path d="M34.23 64.77L63.87 49.95L34.23 35.13L34.23 64.77ZM26.06 70.00L26.06 30.10Q26.06 27.72 27.39 26.44Q28.72 25.16 30.62 25.16L30.62 25.16Q32.80 25.16 34.99 26.49L34.99 26.49L70.23 45.01Q72.04 45.96 72.99 47.10Q73.94 48.24 73.94 49.95L73.94 49.95Q73.94 51.76 73.04 52.85Q72.13 53.94 70.23 54.89L70.23 54.89L34.99 73.51Q33.66 74.18 32.66 74.51Q31.66 74.84 30.62 74.84L30.62 74.84Q28.72 74.84 27.39 73.51Q26.06 72.18 26.06 70.00L26.06 70.00Z" fill="#ffffff"></path></svg>